<?xml version="1.0" encoding="UTF-8"?>
<svg id="testsrc" version="1.1" baseProfile="full" viewBox="0 0 720 576" preserveAspectRatio="xMinYMin meet" shape-rendering="crispEdges" xmlns="http://www.w3.org/2000/svg">
	<g>
		<clipPath id="clip">
			<circle r="323.59550561797755" cx="360" cy="288" fill="none" id="clipper"></circle>
		</clipPath>
		<rect x="0" y="0" width="90" height="576" fill="black"></rect>
		<rect x="90" y="0" width="90" height="576" fill="red"></rect>
		<rect x="180" y="0" width="90" height="576" fill="lawngreen"></rect>
		<rect x="270" y="0" width="90" height="576" fill="yellow"></rect>
		<rect x="360" y="0" width="90" height="576" fill="blue"></rect>
		<rect x="450" y="0" width="90" height="576" fill="magenta"></rect>
		<rect x="540" y="0" width="90" height="576" fill="cyan"></rect>
		<rect x="630" y="0" width="90" height="576" fill="white"></rect>
		<rect x="0" y="0" width="90" height="576" fill="white" clip-path="url(#clip)"></rect>
		<rect x="90" y="0" width="90" height="576" fill="cyan" clip-path="url(#clip)"></rect>
		<rect x="180" y="0" width="90" height="576" fill="magenta" clip-path="url(#clip)"></rect>
		<rect x="270" y="0" width="90" height="576" fill="blue" clip-path="url(#clip)"></rect>
		<rect x="360" y="0" width="90" height="576" fill="yellow" clip-path="url(#clip)"></rect>
		<rect x="450" y="0" width="90" height="576" fill="lawngreen" clip-path="url(#clip)"></rect>
		<rect x="540" y="0" width="90" height="576" fill="red" clip-path="url(#clip)"></rect>
		<rect x="630" y="0" width="90" height="576" fill="black" clip-path="url(#clip)"></rect>
		<linearGradient id="rainbowGrad" x1="0" x2="1" y1="0" y2="0">
			<stop offset="0%" stop-color="lawngreen"></stop>
			<stop offset="17%" stop-color="cyan"></stop>
			<stop offset="33%" stop-color="blue"></stop>
			<stop offset="50%" stop-color="magenta"></stop>
			<stop offset="66%" stop-color="red"></stop>
			<stop offset="83%" stop-color="yellow"></stop>
			<stop offset="100%" stop-color="lawngreen"></stop>
		</linearGradient>
		<rect class="rainbow-bar" x="0" y="432" width="720" height="72" fill="url(#rainbowGrad)"></rect>
		<rect class="black-count" x="576" y="230.4" width="62.99999999999999" height="115.2" fill="black"></rect>
		<rect class="white-count" x="630" y="241.92000000000002" width="9" height="40.32000000000001" fill="white"></rect>
		<rect class="white-count" x="630" y="293.76" width="9" height="40.32000000000001" fill="white"></rect>
		</g></svg>