<?xml version="1.0" encoding="UTF-8"?>
<svg id="smpte-cb-hd" version="1.1" baseProfile="full" viewBox="0 0 1280 720" preserveAspectRatio="xMinYMin meet" shape-rendering="crispEdges" xmlns="http://www.w3.org/2000/svg">
	<g>
		<rect x="0" y="0" width="1280" height="720" fill="#252525"></rect>
		<rect x="0" y="0" width="1280" height="432" fill="#656565"></rect>
		<rect x="160" y="0" width="137.14285714285714" height="432" fill="lightgrey"></rect>
		<rect x="297.1428571428571" y="0" width="137.14285714285714" height="432" fill="#c4c400"></rect>
		<rect x="434.2857142857143" y="0" width="137.14285714285714" height="432" fill="#00c4c3"></rect>
		<rect x="571.4285714285714" y="0" width="137.14285714285714" height="432" fill="#00c400"></rect>
		<rect x="708.5714285714286" y="0" width="137.14285714285714" height="432" fill="#c400c4"></rect>
		<rect x="845.7142857142857" y="0" width="137.14285714285714" height="432" fill="#c40001"></rect>
		<rect x="982.8571428571429" y="0" width="137.14285714285714" height="432" fill="#0000c4"></rect>
		<rect x="0" y="432" width="160" height="72" fill="cyan"></rect>
		<rect x="160" y="432" width="137.14285714285714" height="72" fill="#003d67"></rect>
		<rect x="297.1428571428571" y="432" width="822.8571428571429" height="72" fill="lightgrey"></rect>
		<rect x="1120" y="432" width="160" height="72" fill="blue"></rect>
		<rect x="0" y="503.99999999999994" width="160" height="72" fill="yellow"></rect>
		<rect x="160" y="503.99999999999994" width="137.14285714285714" height="72" fill="#3d0076"></rect>
		<linearGradient id="hdGradient" x1="0" x2="1" y1="0" y2="0">
			<stop offset="0%" stop-color="black" stop-opacity="1"></stop>
			<stop offset="100%" stop-color="white" stop-opacity="1"></stop>
		</linearGradient>
		<rect x="297.1428571428571" y="503.99999999999994" width="822.8571428571429" height="72" fill="url(#hdGradient)"></rect>
		<rect x="1120" y="503.99999999999994" width="160" height="72" fill="red"></rect>
		<rect x="160" y="576" width="205.71428571428572" height="144" fill="#0a0a0a"></rect>
		<rect x="365.7142857142857" y="576" width="274.2857142857143" height="144" fill="white"></rect>
		<rect x="640" y="576" width="137.14285714285714" height="144" fill="#0a0a0a"></rect>
		<rect x="777.1428571428571" y="576" width="41.142857142857146" height="144" fill="black"></rect>
		<rect x="818.2857142857142" y="576" width="41.142857142857146" height="144" fill="#0a0a0a"></rect>
		<rect x="859.4285714285714" y="576" width="41.142857142857146" height="144" fill="#0e0e0e"></rect>
		<rect x="900.5714285714286" y="576" width="41.142857142857146" height="144" fill="#0a0a0a"></rect>
		<rect x="941.7142857142857" y="576" width="41.142857142857146" height="144" fill="#111111"></rect>
		<rect x="982.8571428571429" y="576" width="137.14285714285714" height="144" fill="#0a0a0a"></rect>
	</g>
</svg>